<mxfile host="app.diagrams.net" modified="2024-01-25T01:44:14.322Z" agent="Mozilla/5.0 (Macintosh; Intel Mac OS X 10_15_7) AppleWebKit/537.36 (KHTML, like Gecko) Chrome/120.0.0.0 Safari/537.36" etag="kNWsYRQQIfLuexep07CE" version="22.1.21" type="github">
  <diagram name="Page-1" id="lLI1vEKqlTkGyKcoubk4">
    <mxGraphModel dx="2873" dy="1003" grid="1" gridSize="10" guides="1" tooltips="1" connect="1" arrows="1" fold="1" page="1" pageScale="1" pageWidth="850" pageHeight="1100" math="0" shadow="0">
      <root>
        <mxCell id="0" />
        <mxCell id="1" parent="0" />
        <mxCell id="HYla8N4dnpUGvem4N8iF-85" style="edgeStyle=none;rounded=0;orthogonalLoop=1;jettySize=auto;html=1;entryX=0.5;entryY=1;entryDx=0;entryDy=0;" edge="1" parent="1" source="HYla8N4dnpUGvem4N8iF-80" target="HYla8N4dnpUGvem4N8iF-69">
          <mxGeometry relative="1" as="geometry" />
        </mxCell>
        <mxCell id="HYla8N4dnpUGvem4N8iF-80" value="" style="rounded=1;whiteSpace=wrap;html=1;" vertex="1" parent="1">
          <mxGeometry x="895" y="1030" width="540" height="140" as="geometry" />
        </mxCell>
        <mxCell id="HYla8N4dnpUGvem4N8iF-84" style="edgeStyle=none;rounded=0;orthogonalLoop=1;jettySize=auto;html=1;" edge="1" parent="1" source="HYla8N4dnpUGvem4N8iF-79" target="HYla8N4dnpUGvem4N8iF-80">
          <mxGeometry relative="1" as="geometry" />
        </mxCell>
        <mxCell id="HYla8N4dnpUGvem4N8iF-79" value="" style="rounded=1;whiteSpace=wrap;html=1;" vertex="1" parent="1">
          <mxGeometry x="150" y="1030" width="540" height="140" as="geometry" />
        </mxCell>
        <mxCell id="HYla8N4dnpUGvem4N8iF-83" style="edgeStyle=none;rounded=0;orthogonalLoop=1;jettySize=auto;html=1;entryX=0;entryY=0.5;entryDx=0;entryDy=0;" edge="1" parent="1" source="HYla8N4dnpUGvem4N8iF-78" target="HYla8N4dnpUGvem4N8iF-79">
          <mxGeometry relative="1" as="geometry" />
        </mxCell>
        <mxCell id="HYla8N4dnpUGvem4N8iF-78" value="" style="rounded=1;whiteSpace=wrap;html=1;" vertex="1" parent="1">
          <mxGeometry x="-615" y="1030" width="540" height="140" as="geometry" />
        </mxCell>
        <mxCell id="HYla8N4dnpUGvem4N8iF-69" value="" style="rounded=1;whiteSpace=wrap;html=1;fillColor=#f5f5f5;fontColor=#333333;strokeColor=#666666;" vertex="1" parent="1">
          <mxGeometry x="1040" y="180" width="240" height="470" as="geometry" />
        </mxCell>
        <mxCell id="HYla8N4dnpUGvem4N8iF-82" style="edgeStyle=none;rounded=0;orthogonalLoop=1;jettySize=auto;html=1;" edge="1" parent="1" source="HYla8N4dnpUGvem4N8iF-68" target="HYla8N4dnpUGvem4N8iF-78">
          <mxGeometry relative="1" as="geometry" />
        </mxCell>
        <mxCell id="HYla8N4dnpUGvem4N8iF-68" value="" style="rounded=1;whiteSpace=wrap;html=1;fillColor=#f5f5f5;fontColor=#333333;strokeColor=#666666;" vertex="1" parent="1">
          <mxGeometry x="-470" y="240" width="240" height="470" as="geometry" />
        </mxCell>
        <mxCell id="HYla8N4dnpUGvem4N8iF-1" value="Me" style="shape=umlActor;verticalLabelPosition=bottom;verticalAlign=top;html=1;outlineConnect=0;" vertex="1" parent="1">
          <mxGeometry x="-20" y="450" width="30" height="60" as="geometry" />
        </mxCell>
        <mxCell id="HYla8N4dnpUGvem4N8iF-18" style="edgeStyle=entityRelationEdgeStyle;rounded=0;orthogonalLoop=1;jettySize=auto;html=1;entryX=1;entryY=0.5;entryDx=0;entryDy=0;" edge="1" parent="1" source="HYla8N4dnpUGvem4N8iF-2" target="HYla8N4dnpUGvem4N8iF-11">
          <mxGeometry relative="1" as="geometry" />
        </mxCell>
        <mxCell id="HYla8N4dnpUGvem4N8iF-2" value="Amazon" style="rounded=1;whiteSpace=wrap;html=1;" vertex="1" parent="1">
          <mxGeometry x="450" y="80" width="120" height="60" as="geometry" />
        </mxCell>
        <mxCell id="HYla8N4dnpUGvem4N8iF-28" style="edgeStyle=entityRelationEdgeStyle;rounded=0;orthogonalLoop=1;jettySize=auto;html=1;entryX=1;entryY=0.5;entryDx=0;entryDy=0;" edge="1" parent="1" source="HYla8N4dnpUGvem4N8iF-3" target="HYla8N4dnpUGvem4N8iF-12">
          <mxGeometry relative="1" as="geometry" />
        </mxCell>
        <mxCell id="HYla8N4dnpUGvem4N8iF-3" value="Search By Key/Name" style="rounded=1;whiteSpace=wrap;html=1;fillColor=#d5e8d4;strokeColor=#82b366;" vertex="1" parent="1">
          <mxGeometry x="450" y="230" width="120" height="60" as="geometry" />
        </mxCell>
        <mxCell id="HYla8N4dnpUGvem4N8iF-29" style="edgeStyle=entityRelationEdgeStyle;rounded=0;orthogonalLoop=1;jettySize=auto;html=1;entryX=1;entryY=0.5;entryDx=0;entryDy=0;" edge="1" parent="1" source="HYla8N4dnpUGvem4N8iF-4" target="HYla8N4dnpUGvem4N8iF-13">
          <mxGeometry relative="1" as="geometry" />
        </mxCell>
        <mxCell id="HYla8N4dnpUGvem4N8iF-37" value="" style="edgeStyle=entityRelationEdgeStyle;rounded=0;orthogonalLoop=1;jettySize=auto;html=1;" edge="1" parent="1" source="HYla8N4dnpUGvem4N8iF-4" target="HYla8N4dnpUGvem4N8iF-36">
          <mxGeometry relative="1" as="geometry" />
        </mxCell>
        <mxCell id="HYla8N4dnpUGvem4N8iF-44" style="edgeStyle=entityRelationEdgeStyle;rounded=0;orthogonalLoop=1;jettySize=auto;html=1;" edge="1" parent="1" source="HYla8N4dnpUGvem4N8iF-4" target="HYla8N4dnpUGvem4N8iF-42">
          <mxGeometry relative="1" as="geometry" />
        </mxCell>
        <mxCell id="HYla8N4dnpUGvem4N8iF-45" style="edgeStyle=entityRelationEdgeStyle;rounded=0;orthogonalLoop=1;jettySize=auto;html=1;" edge="1" parent="1" source="HYla8N4dnpUGvem4N8iF-4" target="HYla8N4dnpUGvem4N8iF-38">
          <mxGeometry relative="1" as="geometry" />
        </mxCell>
        <mxCell id="HYla8N4dnpUGvem4N8iF-46" style="edgeStyle=entityRelationEdgeStyle;rounded=0;orthogonalLoop=1;jettySize=auto;html=1;" edge="1" parent="1" source="HYla8N4dnpUGvem4N8iF-4" target="HYla8N4dnpUGvem4N8iF-41">
          <mxGeometry relative="1" as="geometry" />
        </mxCell>
        <mxCell id="HYla8N4dnpUGvem4N8iF-47" style="edgeStyle=entityRelationEdgeStyle;rounded=0;orthogonalLoop=1;jettySize=auto;html=1;" edge="1" parent="1" source="HYla8N4dnpUGvem4N8iF-4" target="HYla8N4dnpUGvem4N8iF-43">
          <mxGeometry relative="1" as="geometry" />
        </mxCell>
        <mxCell id="HYla8N4dnpUGvem4N8iF-4" value="Choose From List" style="rounded=1;whiteSpace=wrap;html=1;fillColor=#fff2cc;strokeColor=#d6b656;" vertex="1" parent="1">
          <mxGeometry x="450" y="380" width="120" height="60" as="geometry" />
        </mxCell>
        <mxCell id="HYla8N4dnpUGvem4N8iF-24" style="edgeStyle=entityRelationEdgeStyle;rounded=0;orthogonalLoop=1;jettySize=auto;html=1;entryX=1;entryY=0.5;entryDx=0;entryDy=0;" edge="1" parent="1" source="HYla8N4dnpUGvem4N8iF-5" target="HYla8N4dnpUGvem4N8iF-14">
          <mxGeometry relative="1" as="geometry" />
        </mxCell>
        <mxCell id="HYla8N4dnpUGvem4N8iF-5" value="Place An Order" style="rounded=1;whiteSpace=wrap;html=1;" vertex="1" parent="1">
          <mxGeometry x="450" y="530" width="120" height="60" as="geometry" />
        </mxCell>
        <mxCell id="HYla8N4dnpUGvem4N8iF-26" style="edgeStyle=entityRelationEdgeStyle;rounded=0;orthogonalLoop=1;jettySize=auto;html=1;entryX=1;entryY=0.5;entryDx=0;entryDy=0;" edge="1" parent="1" source="HYla8N4dnpUGvem4N8iF-6" target="HYla8N4dnpUGvem4N8iF-15">
          <mxGeometry relative="1" as="geometry" />
        </mxCell>
        <mxCell id="HYla8N4dnpUGvem4N8iF-6" value="Shipping" style="rounded=1;whiteSpace=wrap;html=1;" vertex="1" parent="1">
          <mxGeometry x="460" y="680" width="120" height="60" as="geometry" />
        </mxCell>
        <mxCell id="HYla8N4dnpUGvem4N8iF-7" value="Delivery" style="rounded=1;whiteSpace=wrap;html=1;" vertex="1" parent="1">
          <mxGeometry x="460" y="830" width="120" height="60" as="geometry" />
        </mxCell>
        <mxCell id="HYla8N4dnpUGvem4N8iF-17" style="edgeStyle=entityRelationEdgeStyle;rounded=0;orthogonalLoop=1;jettySize=auto;html=1;entryX=0;entryY=0.5;entryDx=0;entryDy=0;" edge="1" parent="1" source="HYla8N4dnpUGvem4N8iF-8" target="HYla8N4dnpUGvem4N8iF-2">
          <mxGeometry relative="1" as="geometry" />
        </mxCell>
        <mxCell id="HYla8N4dnpUGvem4N8iF-8" value="1" style="ellipse;whiteSpace=wrap;html=1;aspect=fixed;strokeWidth=2;fontFamily=Tahoma;spacingBottom=4;spacingRight=2;strokeColor=#d3d3d3;" vertex="1" parent="1">
          <mxGeometry x="230" y="100" width="20" height="20" as="geometry" />
        </mxCell>
        <mxCell id="HYla8N4dnpUGvem4N8iF-19" style="edgeStyle=entityRelationEdgeStyle;rounded=0;orthogonalLoop=1;jettySize=auto;html=1;entryX=0;entryY=0.5;entryDx=0;entryDy=0;" edge="1" parent="1" source="HYla8N4dnpUGvem4N8iF-11" target="HYla8N4dnpUGvem4N8iF-3">
          <mxGeometry relative="1" as="geometry" />
        </mxCell>
        <mxCell id="HYla8N4dnpUGvem4N8iF-11" value="2" style="ellipse;whiteSpace=wrap;html=1;aspect=fixed;strokeWidth=2;fontFamily=Tahoma;spacingBottom=4;spacingRight=2;strokeColor=#d3d3d3;" vertex="1" parent="1">
          <mxGeometry x="230" y="250" width="20" height="20" as="geometry" />
        </mxCell>
        <mxCell id="HYla8N4dnpUGvem4N8iF-21" style="edgeStyle=entityRelationEdgeStyle;rounded=0;orthogonalLoop=1;jettySize=auto;html=1;entryX=0;entryY=0.5;entryDx=0;entryDy=0;" edge="1" parent="1" source="HYla8N4dnpUGvem4N8iF-12" target="HYla8N4dnpUGvem4N8iF-4">
          <mxGeometry relative="1" as="geometry" />
        </mxCell>
        <mxCell id="HYla8N4dnpUGvem4N8iF-12" value="3" style="ellipse;whiteSpace=wrap;html=1;aspect=fixed;strokeWidth=2;fontFamily=Tahoma;spacingBottom=4;spacingRight=2;strokeColor=#d3d3d3;" vertex="1" parent="1">
          <mxGeometry x="230" y="400" width="20" height="20" as="geometry" />
        </mxCell>
        <mxCell id="HYla8N4dnpUGvem4N8iF-23" style="edgeStyle=entityRelationEdgeStyle;rounded=0;orthogonalLoop=1;jettySize=auto;html=1;" edge="1" parent="1" source="HYla8N4dnpUGvem4N8iF-13" target="HYla8N4dnpUGvem4N8iF-5">
          <mxGeometry relative="1" as="geometry" />
        </mxCell>
        <mxCell id="HYla8N4dnpUGvem4N8iF-13" value="4" style="ellipse;whiteSpace=wrap;html=1;aspect=fixed;strokeWidth=2;fontFamily=Tahoma;spacingBottom=4;spacingRight=2;strokeColor=#d3d3d3;" vertex="1" parent="1">
          <mxGeometry x="230" y="550" width="20" height="20" as="geometry" />
        </mxCell>
        <mxCell id="HYla8N4dnpUGvem4N8iF-25" style="edgeStyle=entityRelationEdgeStyle;rounded=0;orthogonalLoop=1;jettySize=auto;html=1;entryX=0;entryY=0.5;entryDx=0;entryDy=0;" edge="1" parent="1" source="HYla8N4dnpUGvem4N8iF-14" target="HYla8N4dnpUGvem4N8iF-6">
          <mxGeometry relative="1" as="geometry" />
        </mxCell>
        <mxCell id="HYla8N4dnpUGvem4N8iF-14" value="5" style="ellipse;whiteSpace=wrap;html=1;aspect=fixed;strokeWidth=2;fontFamily=Tahoma;spacingBottom=4;spacingRight=2;strokeColor=#d3d3d3;" vertex="1" parent="1">
          <mxGeometry x="230" y="700" width="20" height="20" as="geometry" />
        </mxCell>
        <mxCell id="HYla8N4dnpUGvem4N8iF-27" style="edgeStyle=entityRelationEdgeStyle;rounded=0;orthogonalLoop=1;jettySize=auto;html=1;entryX=0;entryY=0.5;entryDx=0;entryDy=0;" edge="1" parent="1" source="HYla8N4dnpUGvem4N8iF-15" target="HYla8N4dnpUGvem4N8iF-7">
          <mxGeometry relative="1" as="geometry" />
        </mxCell>
        <mxCell id="HYla8N4dnpUGvem4N8iF-15" value="6" style="ellipse;whiteSpace=wrap;html=1;aspect=fixed;strokeWidth=2;fontFamily=Tahoma;spacingBottom=4;spacingRight=2;strokeColor=#d3d3d3;" vertex="1" parent="1">
          <mxGeometry x="230" y="850" width="20" height="20" as="geometry" />
        </mxCell>
        <mxCell id="HYla8N4dnpUGvem4N8iF-31" value="" style="endArrow=classic;html=1;rounded=0;" edge="1" parent="1">
          <mxGeometry width="50" height="50" relative="1" as="geometry">
            <mxPoint x="160" y="80" as="sourcePoint" />
            <mxPoint x="160" y="920" as="targetPoint" />
          </mxGeometry>
        </mxCell>
        <mxCell id="HYla8N4dnpUGvem4N8iF-32" value="A workflow How I Buy A Production From Amazon" style="text;html=1;align=center;verticalAlign=middle;resizable=0;points=[];autosize=1;strokeColor=none;fillColor=none;rotation=90;" vertex="1" parent="1">
          <mxGeometry x="-30" y="460" width="290" height="30" as="geometry" />
        </mxCell>
        <mxCell id="HYla8N4dnpUGvem4N8iF-36" value="Recommend by Similars?" style="rounded=1;whiteSpace=wrap;html=1;fillColor=#fff2cc;strokeColor=#d6b656;" vertex="1" parent="1">
          <mxGeometry x="750" y="380" width="120" height="60" as="geometry" />
        </mxCell>
        <mxCell id="HYla8N4dnpUGvem4N8iF-38" value="Recommend by Sales?" style="rounded=1;whiteSpace=wrap;html=1;fillColor=#fff2cc;strokeColor=#d6b656;" vertex="1" parent="1">
          <mxGeometry x="750" y="230" width="120" height="60" as="geometry" />
        </mxCell>
        <mxCell id="HYla8N4dnpUGvem4N8iF-41" value="Recommend by Reviews?" style="rounded=1;whiteSpace=wrap;html=1;fillColor=#fff2cc;strokeColor=#d6b656;" vertex="1" parent="1">
          <mxGeometry x="750" y="530" width="120" height="60" as="geometry" />
        </mxCell>
        <mxCell id="HYla8N4dnpUGvem4N8iF-42" value="Recommend by Rate / Popular?" style="rounded=1;whiteSpace=wrap;html=1;fillColor=#fff2cc;strokeColor=#d6b656;" vertex="1" parent="1">
          <mxGeometry x="750" y="80" width="120" height="60" as="geometry" />
        </mxCell>
        <mxCell id="HYla8N4dnpUGvem4N8iF-43" value="Recommend by Deals?" style="rounded=1;whiteSpace=wrap;html=1;fillColor=#fff2cc;strokeColor=#d6b656;" vertex="1" parent="1">
          <mxGeometry x="750" y="680" width="120" height="60" as="geometry" />
        </mxCell>
        <mxCell id="HYla8N4dnpUGvem4N8iF-48" value="" style="endArrow=none;dashed=1;html=1;dashPattern=1 3;strokeWidth=2;rounded=0;" edge="1" parent="1">
          <mxGeometry width="50" height="50" relative="1" as="geometry">
            <mxPoint x="960" y="760" as="sourcePoint" />
            <mxPoint x="960" y="100" as="targetPoint" />
          </mxGeometry>
        </mxCell>
        <mxCell id="HYla8N4dnpUGvem4N8iF-49" value="" style="shape=cylinder3;whiteSpace=wrap;html=1;boundedLbl=1;backgroundOutline=1;size=15;fillColor=#d5e8d4;strokeColor=#82b366;" vertex="1" parent="1">
          <mxGeometry x="1130" y="220" width="60" height="80" as="geometry" />
        </mxCell>
        <mxCell id="HYla8N4dnpUGvem4N8iF-50" value="" style="shape=cylinder3;whiteSpace=wrap;html=1;boundedLbl=1;backgroundOutline=1;size=15;fillColor=#fff2cc;strokeColor=#d6b656;" vertex="1" parent="1">
          <mxGeometry x="1130" y="510" width="60" height="80" as="geometry" />
        </mxCell>
        <mxCell id="HYla8N4dnpUGvem4N8iF-51" value="Product Data" style="text;html=1;align=center;verticalAlign=middle;resizable=0;points=[];autosize=1;strokeColor=none;fillColor=none;" vertex="1" parent="1">
          <mxGeometry x="1120" y="310" width="90" height="30" as="geometry" />
        </mxCell>
        <mxCell id="HYla8N4dnpUGvem4N8iF-52" value="Recommended Data" style="text;html=1;align=center;verticalAlign=middle;resizable=0;points=[];autosize=1;strokeColor=none;fillColor=none;" vertex="1" parent="1">
          <mxGeometry x="1100" y="600" width="130" height="30" as="geometry" />
        </mxCell>
        <mxCell id="HYla8N4dnpUGvem4N8iF-53" value="" style="html=1;verticalLabelPosition=bottom;align=center;labelBackgroundColor=#ffffff;verticalAlign=top;strokeWidth=2;strokeColor=#0080F0;shadow=0;dashed=0;shape=mxgraph.ios7.icons.add;" vertex="1" parent="1">
          <mxGeometry x="1145" y="400" width="30" height="30" as="geometry" />
        </mxCell>
        <mxCell id="HYla8N4dnpUGvem4N8iF-54" value="" style="sketch=0;html=1;aspect=fixed;strokeColor=none;shadow=0;fillColor=#3B8DF1;verticalAlign=top;labelPosition=center;verticalLabelPosition=bottom;shape=mxgraph.gcp2.thumbs_up" vertex="1" parent="1">
          <mxGeometry x="840" y="50" width="50" height="50" as="geometry" />
        </mxCell>
        <mxCell id="HYla8N4dnpUGvem4N8iF-55" value="" style="sketch=0;html=1;aspect=fixed;strokeColor=none;shadow=0;fillColor=#3B8DF1;verticalAlign=top;labelPosition=center;verticalLabelPosition=bottom;shape=mxgraph.gcp2.thumbs_up" vertex="1" parent="1">
          <mxGeometry x="840" y="350" width="50" height="50" as="geometry" />
        </mxCell>
        <mxCell id="HYla8N4dnpUGvem4N8iF-56" value="" style="sketch=0;html=1;aspect=fixed;strokeColor=none;shadow=0;fillColor=#3B8DF1;verticalAlign=top;labelPosition=center;verticalLabelPosition=bottom;shape=mxgraph.gcp2.thumbs_up" vertex="1" parent="1">
          <mxGeometry x="840" y="210" width="50" height="50" as="geometry" />
        </mxCell>
        <mxCell id="HYla8N4dnpUGvem4N8iF-57" value="" style="sketch=0;html=1;aspect=fixed;strokeColor=none;shadow=0;fillColor=#3B8DF1;verticalAlign=top;labelPosition=center;verticalLabelPosition=bottom;shape=mxgraph.gcp2.thumbs_up" vertex="1" parent="1">
          <mxGeometry x="840" y="500" width="50" height="50" as="geometry" />
        </mxCell>
        <mxCell id="HYla8N4dnpUGvem4N8iF-58" value="" style="sketch=0;html=1;aspect=fixed;strokeColor=none;shadow=0;fillColor=#3B8DF1;verticalAlign=top;labelPosition=center;verticalLabelPosition=bottom;shape=mxgraph.gcp2.thumbs_up" vertex="1" parent="1">
          <mxGeometry x="840" y="650" width="50" height="50" as="geometry" />
        </mxCell>
        <mxCell id="HYla8N4dnpUGvem4N8iF-59" value="" style="shape=cylinder3;whiteSpace=wrap;html=1;boundedLbl=1;backgroundOutline=1;size=15;fillColor=#d5e8d4;strokeColor=#82b366;" vertex="1" parent="1">
          <mxGeometry x="-380" y="275" width="60" height="80" as="geometry" />
        </mxCell>
        <mxCell id="HYla8N4dnpUGvem4N8iF-60" value="" style="shape=cylinder3;whiteSpace=wrap;html=1;boundedLbl=1;backgroundOutline=1;size=15;fillColor=#fff2cc;strokeColor=#d6b656;" vertex="1" parent="1">
          <mxGeometry x="-380" y="565" width="60" height="80" as="geometry" />
        </mxCell>
        <mxCell id="HYla8N4dnpUGvem4N8iF-61" value="Amazon Products" style="text;html=1;align=center;verticalAlign=middle;resizable=0;points=[];autosize=1;strokeColor=none;fillColor=none;" vertex="1" parent="1">
          <mxGeometry x="-405" y="360" width="120" height="30" as="geometry" />
        </mxCell>
        <mxCell id="HYla8N4dnpUGvem4N8iF-62" value="Customer/Product Records" style="text;html=1;align=center;verticalAlign=middle;resizable=0;points=[];autosize=1;strokeColor=none;fillColor=none;" vertex="1" parent="1">
          <mxGeometry x="-430" y="650" width="170" height="30" as="geometry" />
        </mxCell>
        <mxCell id="HYla8N4dnpUGvem4N8iF-63" value="" style="html=1;verticalLabelPosition=bottom;align=center;labelBackgroundColor=#ffffff;verticalAlign=top;strokeWidth=2;strokeColor=#0080F0;shadow=0;dashed=0;shape=mxgraph.ios7.icons.add;" vertex="1" parent="1">
          <mxGeometry x="-365" y="455" width="30" height="30" as="geometry" />
        </mxCell>
        <mxCell id="HYla8N4dnpUGvem4N8iF-65" style="edgeStyle=entityRelationEdgeStyle;rounded=0;orthogonalLoop=1;jettySize=auto;html=1;entryX=1;entryY=0.5;entryDx=0;entryDy=0;entryPerimeter=0;" edge="1" parent="1" source="HYla8N4dnpUGvem4N8iF-1" target="HYla8N4dnpUGvem4N8iF-60">
          <mxGeometry relative="1" as="geometry" />
        </mxCell>
        <mxCell id="HYla8N4dnpUGvem4N8iF-66" value="contribute" style="text;html=1;align=center;verticalAlign=middle;resizable=0;points=[];autosize=1;strokeColor=none;fillColor=none;" vertex="1" parent="1">
          <mxGeometry x="-190" y="565" width="80" height="30" as="geometry" />
        </mxCell>
        <mxCell id="HYla8N4dnpUGvem4N8iF-67" value="Collect" style="rounded=1;whiteSpace=wrap;html=1;" vertex="1" parent="1">
          <mxGeometry x="-572.5" y="1070" width="120" height="60" as="geometry" />
        </mxCell>
        <mxCell id="HYla8N4dnpUGvem4N8iF-70" value="Filter" style="rounded=1;whiteSpace=wrap;html=1;" vertex="1" parent="1">
          <mxGeometry x="-417.5" y="1070" width="120" height="60" as="geometry" />
        </mxCell>
        <mxCell id="HYla8N4dnpUGvem4N8iF-71" value="Transformer" style="rounded=1;whiteSpace=wrap;html=1;" vertex="1" parent="1">
          <mxGeometry x="-247.5" y="1070" width="120" height="60" as="geometry" />
        </mxCell>
        <mxCell id="HYla8N4dnpUGvem4N8iF-72" value="Receive" style="rounded=1;whiteSpace=wrap;html=1;" vertex="1" parent="1">
          <mxGeometry x="190" y="1070" width="120" height="60" as="geometry" />
        </mxCell>
        <mxCell id="HYla8N4dnpUGvem4N8iF-73" value="Validate" style="rounded=1;whiteSpace=wrap;html=1;" vertex="1" parent="1">
          <mxGeometry x="360" y="1070" width="120" height="60" as="geometry" />
        </mxCell>
        <mxCell id="HYla8N4dnpUGvem4N8iF-74" value="Persistent" style="rounded=1;whiteSpace=wrap;html=1;" vertex="1" parent="1">
          <mxGeometry x="530" y="1070" width="120" height="60" as="geometry" />
        </mxCell>
        <mxCell id="HYla8N4dnpUGvem4N8iF-75" value="Load" style="rounded=1;whiteSpace=wrap;html=1;" vertex="1" parent="1">
          <mxGeometry x="930" y="1070" width="120" height="60" as="geometry" />
        </mxCell>
        <mxCell id="HYla8N4dnpUGvem4N8iF-76" value="Prepare" style="rounded=1;whiteSpace=wrap;html=1;" vertex="1" parent="1">
          <mxGeometry x="1105" y="1070" width="120" height="60" as="geometry" />
        </mxCell>
        <mxCell id="HYla8N4dnpUGvem4N8iF-77" value="Analyze" style="rounded=1;whiteSpace=wrap;html=1;" vertex="1" parent="1">
          <mxGeometry x="1275" y="1070" width="120" height="60" as="geometry" />
        </mxCell>
        <mxCell id="HYla8N4dnpUGvem4N8iF-86" value="CDC" style="text;html=1;align=center;verticalAlign=middle;resizable=0;points=[];autosize=1;strokeColor=none;fillColor=none;" vertex="1" parent="1">
          <mxGeometry x="-600" y="1030" width="50" height="30" as="geometry" />
        </mxCell>
        <mxCell id="HYla8N4dnpUGvem4N8iF-87" value="Persistent" style="text;html=1;align=center;verticalAlign=middle;resizable=0;points=[];autosize=1;strokeColor=none;fillColor=none;" vertex="1" parent="1">
          <mxGeometry x="170" y="1030" width="80" height="30" as="geometry" />
        </mxCell>
        <mxCell id="HYla8N4dnpUGvem4N8iF-88" value="Index" style="shape=cylinder3;whiteSpace=wrap;html=1;boundedLbl=1;backgroundOutline=1;size=15;fillColor=#fff2cc;strokeColor=#d6b656;" vertex="1" parent="1">
          <mxGeometry x="345" y="1290" width="150" height="110" as="geometry" />
        </mxCell>
        <mxCell id="HYla8N4dnpUGvem4N8iF-94" style="edgeStyle=none;rounded=0;orthogonalLoop=1;jettySize=auto;html=1;" edge="1" parent="1" source="HYla8N4dnpUGvem4N8iF-89" target="HYla8N4dnpUGvem4N8iF-92">
          <mxGeometry relative="1" as="geometry" />
        </mxCell>
        <mxCell id="HYla8N4dnpUGvem4N8iF-89" value="Source" style="shape=cylinder3;whiteSpace=wrap;html=1;boundedLbl=1;backgroundOutline=1;size=15;fillColor=#fff2cc;strokeColor=#d6b656;" vertex="1" parent="1">
          <mxGeometry x="720" y="1290" width="150" height="110" as="geometry" />
        </mxCell>
        <mxCell id="HYla8N4dnpUGvem4N8iF-90" value="Business Data" style="shape=cylinder3;whiteSpace=wrap;html=1;boundedLbl=1;backgroundOutline=1;size=15;fillColor=#fff2cc;strokeColor=#d6b656;" vertex="1" parent="1">
          <mxGeometry x="1090" y="1290" width="150" height="110" as="geometry" />
        </mxCell>
        <mxCell id="HYla8N4dnpUGvem4N8iF-91" value="Index" style="shape=cylinder3;whiteSpace=wrap;html=1;boundedLbl=1;backgroundOutline=1;size=15;fillColor=#fff2cc;strokeColor=#d6b656;" vertex="1" parent="1">
          <mxGeometry x="345" y="1470" width="150" height="110" as="geometry" />
        </mxCell>
        <mxCell id="HYla8N4dnpUGvem4N8iF-95" style="edgeStyle=none;rounded=0;orthogonalLoop=1;jettySize=auto;html=1;" edge="1" parent="1" source="HYla8N4dnpUGvem4N8iF-92" target="HYla8N4dnpUGvem4N8iF-93">
          <mxGeometry relative="1" as="geometry" />
        </mxCell>
        <mxCell id="HYla8N4dnpUGvem4N8iF-92" value="Source" style="shape=cylinder3;whiteSpace=wrap;html=1;boundedLbl=1;backgroundOutline=1;size=15;fillColor=#fff2cc;strokeColor=#d6b656;" vertex="1" parent="1">
          <mxGeometry x="720" y="1470" width="150" height="110" as="geometry" />
        </mxCell>
        <mxCell id="HYla8N4dnpUGvem4N8iF-93" value="Source" style="shape=cylinder3;whiteSpace=wrap;html=1;boundedLbl=1;backgroundOutline=1;size=15;fillColor=#fff2cc;strokeColor=#d6b656;" vertex="1" parent="1">
          <mxGeometry x="720" y="1650" width="150" height="110" as="geometry" />
        </mxCell>
        <mxCell id="HYla8N4dnpUGvem4N8iF-96" style="edgeStyle=none;rounded=0;orthogonalLoop=1;jettySize=auto;html=1;entryX=0.5;entryY=0;entryDx=0;entryDy=0;entryPerimeter=0;" edge="1" parent="1" source="HYla8N4dnpUGvem4N8iF-88" target="HYla8N4dnpUGvem4N8iF-91">
          <mxGeometry relative="1" as="geometry" />
        </mxCell>
        <mxCell id="HYla8N4dnpUGvem4N8iF-97" value="" style="endArrow=none;html=1;rounded=0;" edge="1" parent="1">
          <mxGeometry width="50" height="50" relative="1" as="geometry">
            <mxPoint x="-80" y="1240" as="sourcePoint" />
            <mxPoint x="1235" y="1240" as="targetPoint" />
          </mxGeometry>
        </mxCell>
        <mxCell id="HYla8N4dnpUGvem4N8iF-98" value="" style="shape=image;imageAspect=0;aspect=fixed;verticalLabelPosition=bottom;verticalAlign=top;image=data:image/png,iVBORw0KGgoAAAANSUhEUgAAAZAAAAGQCAMAAAC3Ycb+AAAAwFBMVEVHcEwAAAAAAAAAAAAAAAAAAAAAAAAAAAAAAAAAAAAAAAAAAAAAAAAAAAAAAAAAAAAAAAAAAAAAAAAAAAAAAAAAAAAAAAAAAAAAAAAAAAAAAAAAAAAAAAAAAAAAAAAAAAAAAAAAAAAAAAAAAAAAAAAAAAAAAAAAAAAAAAAAAAAAAAAAAAAAAAAAAAAAAAAAAAAAAAAAAAAAAAAAAAAAAAAAAAAAAAAAAAAAAAAAAAAAAAAAAAAAAAAAAAAAAAAAAACOoSlDAAAAQHRSTlMAAQUCBA0bQWqNrMXb5ezw1sCniF83FgMfb/z/98qYZKL9/vtaCFCy4PqdESeD0Tx9MVQp6PNGSyMtzXaStzS8RSX0tgAAJ1ZJREFUeAHsm4d26koMReUYUoFUcDKHNsc0k957/v+z3nVeL3JmArmvaa92S0LbS0eSPcjfTLKSikitvrq2vrG51Wi2tlvNnd29/YN2py7fyGqJfDeMJBORw7WjvR2HP9Lt9QftTunk+ygxEiltrA93UOL5ezwA5L3+qCyU5MudGGkqMp5MZwBc4TxB/AYS9HlBwDXm7a8vE6MmcnjUAOALRxB/AVk6AeB6o+PyN74MIxU5OW0B8J4goUGQzgM4W69bbn2ljuP9JpCTuo7fZBd9DpwN3n9z+RiZyKgBFB4kQiDhCmD33HLra2arkyngHUAEQoI54TaOJZNlY3E1aMHprUNX4omztdKosUwfx3tAAV1HlZICxYUssUiMTC7P4B1IxEMiBzY7S2skRiJXLeQE8SlIeI+z66XViLXzI4eg8lAgyRw358swYiSJXAAOxCIQOW7vzMhSCuQUXNQHCDh0721FXJiyPuhBYjHI0ojVyKKksg4w3odiZLttRhYik0kBD2IJkMgxe7DUWqg+HlvIw30E1MhW3Xb2BfpH/Qk5SCwHkg5zE7KAkHlYfYTjPQbWRj5JTQ5Aklge74398VM1YmRy2FxsIVQa+24qxqcYovjYB0F675zzIdfmSXgcWWh9gkQmcAQ/suGKwuFH8iL3BFEJPW4+M/sa47PqDYQlzgHAdnPWmN10ASD3LIEKmWMeLcTI5Bke/OheINAYPo/OL08eri/vDi6mNwB8ZZkQHvmahVZ0YHUa8IQK4R3Q6q+tpr+tqsOraRfIq7oJUWDTKiSSmlzAkZXTEmYXnfefrWVpSVbL5Bsn8xa8rzJCh3MbfaNIpbNTsRMSyHG7UepIk98V1vtfHzdRNQ8QHlOJw4QMUJBVcdVri2RKdcnoptII0bXtMI7xLhx0H8C8rh+kzkROtiqNePRLb4EYibThQX21w6lIVvn9kfomvG7EodGxEomhD6/XB/FcSqsik2wPntSkegxkRUIxxk2Q+oy0//GR9lTGU/WoClFgGFwhRiqTHJoPOOyFHAzNpHMG7WHo0Qy+fmLUZA5HtaGfHUsS9CjtW+1qMVlgYkICSWTlCbnig+SapMHLpdeSL8eLhGFk0m7Bq+HfDw7/UqxXM2tnLEEYKzJQL5u4Mvuz4F50D0IxAhxKIFYhLyjUCeslZqNLt+DVbX0UVGpGIuNX5MRf4dE6kSRmXENOKkI2TEigkMMGHJXkf5U05qFWG3DQHsqEBJHKZaEGTWTOpGX6aW4bEoYJWUNBxUe3E7nRjLTJ16PZCZNrkXWg9HR47I4j5V7P/jr+SGy3w+LPeFZ6OnNsSCw9bccM/rqIsa98higwkCQys6aaXeQHYRuN0dcmowJ3kkUK2dCWfuIobKUxhpoQh/NIIZlcgJqQZxMSRLKnCPHM3ySNFHIEaHPvxYJCTAi68ULWTcjCzPXtuh0dWc8WWQvzognJsRYt5FQTAqwvPGXZ2HsVGVk1GcIpQpyNvYFc6Ivhs8SRya72YCiuQoQYiQxQaGPvMI09s32mVsht0L1gI5U7/eLirB5ZIGu38FS+t3MYtvabkDf9UBbeIu8GP2tyPWaBOkzIQxMe8bf5lJuPSvx59IIeykjkeEu/Y9hYiSs2R2oPNQwVYkbmKLTI4oHUIidobS9cNyGhwX+kBD+ZYzeL+BxXbyva0aMJCSOT+y68YsRjJFnEeSL9FNBNXYIw0oqzInDYOZYkcEs/72oFQodpePRZiUz1w9Z56KCVysqWeioLhbWQZVwz/6G9K9FOXNeWW8iQiTGTQUVItA0Bh5CQeSDD///Vu630pc/pG9kSps87eKneu3OWYVHeg6StKjCDHZOWoB0kbL3T1r9x3zgJ6LbA9vsIzRuKHFg9BDOsw++fQcnMB52M7ihBvUtxLh+PacY9xRQz9/Y5QNAQyp60ElxdkswR+316sPJhZoTXJYcphJAG4j8osbDGBJqzxCyvieIsY6TDxEopwArvxfkQMvrdnE9EUSzKqp6cIouRh22rTYuMqfqGLHFyhjnpKgIRV+gHKtPa893Lf3D3XJuO6AcMTeW7RNW3ZxwGFLB/RyS+e2+JHk+yxJeZGfVKwTRFRJWX897b7l77vp8Aqt+sn4wHi+FRlcpo2CfpLEtbg8EK9wfH5lWVYsmFSUMvZ0mmHhAjKbIIEeZDuqdne41fXfSv/Np83V28fBn8lSxEWtCZPmwpcL/zMvpK3ZVK5SuBVa/3H4AEYAAFVvs2iIgofu7tNRkAp2litAX5S2YwSVMNAA9Xsx9fLJKlYsQoMWSq62sAncXWc5W+ML17ml0BUNniTJyuPm8SEx3f7qYAkCSaGcy/6z+qhAGgc9otmavPXR/MnGOMxwDqnf3BzsHbYNfkEG1+pmzjitfVFoVCENUWryZFWa37GCZcGJjsvJSrmBwgddHAVPiFJNdUz5A8pGi16JjOJkCSMBj5XwxoDp7L4/4qaPqbNIa1vCepgYsmKRgauyRXquWj7Qaglv2CCyUPs+PS+FpGdAt2c0YwacL1L9F8JrGKb9/jnl1g06LSqYHJYWkYkXS2bul3Bq/U8gpB1bcEiV2C1lblEmB8SUKUJGm116w1zpxil0j4h8f1VXYzbeVEadwPS9JvSbruQ6/TrgIK9RpJfz56fSQazKvFJN5G5WBEUA+KsTZCoKH8NZQlVS8AS/FwNH/tdEvBiCAamMS9Lj54hSVhRLUO1Oo+WGyCZFKOO9iSxBgpmNfDh8KchDcfd22kDC7YSrSeSJTD9WjPv5ha9yMHRMLbhneChMGFXRTT25IwUjvxfkEtqRxnsT8fHxMoMHPxdkLdliRrHe8VZ4ShNS4qJH35uJsgAa/H2qf/RHE5vNQ/bUXVwy+a8SZIeofnFVKA19RyPxyVpNeq7gMa4CLpCjPyzxijz6wC5s9I47kkMUJzrF5ZGTrBw9B/gS5osEYbRWYkZfG1lETDpv3cyWH3on1EUqwwQKlWpsNisjEgURJT9btPQME3Sti8l9ivUbzC1brWerfSGGyZg91ASIoXfbBmsPe+RWO1HfDRXqGEZdm7ub8kWZJDdvr4/Hk+5LFCZmC/S2KVA5B5oYbXahE3JhJUBghJNGwDllNa25ld59GQuULCMmf6Dp+ilUoSpZx8LcEKhySpHBBE1UUb0L+Ne1gnDYCTU1r1hXxHwpx3/qT/MpEF7fLFFCYlEt+URMenVwA4MS9kxjk7AHRupyaw7MiWM8172RV+oNEZ75/tf7ZTQ4pi5DFyUB5CzJxa9XzcBKC+zV28nERp7l5HRNGqh5UnSLJ9LXUK9Ntv593pqBLLaFStbc33HgClkO00iofLsjCynNDsLjoNAPz9FAOAxnj7y1SviFQt5zTTk8EW/YbL2VWeryVrXFBMZYIwZoWHb20wfyf/urdz+FJw4HlUR6btntZozp6Xc9cGwvz76Wk753hRo1m663QiEkTfpnlG+jQydxIKlaphRof1c615+d3wrqgQTWdptotiih2KqWyQI3oC8ze6jF2KCo45S9qDzrQZbR4SSWmrctdXWYxAldMAK6Jz6O8IuSNZdA362IfOOo9tvxCJjAXTNMtFkZHiNBDiRcgAKXPGnu0xxTkuigM7I8waeyMKhHgoSbShMobnT6YU5T2CBlB2Rhg3gRCPALlFwmzlo+2wdSwpHtv37pl9FochZdHAJg9lOYe1GZBr2D3iQoR43MmuQ9uTTY9itzi7tg+UGfOSQIiHVbVdI+XTdbNS2q92M2vMAyHOWNhVtizq89bh/cTCSIrdQIgzxlafUYWBzxe0n8krXB0HQhwhG/Z2NfXQBRRUvbLbCrSuAyFOEHT3YCEEKfYFuSOyOgGAEwwDIU6QdGsVMlV+93cFPWdwOw+EFDRJgkK96/nsDrStqg8CIY6PHdh+xARj323zRcazAiGeRnvFTZIEXds6aIU9ckOoIR27FaWn44igmq2IOG6eBEIEVU6g2Hr0KjxnJV6hLYQ0AiHOih7K9htOyROjsVUS+oGcEAg5blsJmVTIE/GZPf8FQhzTvp2QOgnyxMBKiKZ/HoEQYSdE0T+PkLKitaSsUNTZUtS9x6RH79ai3iInBEIiW9vLaH2Q9GU3tL1/cGGYDn0Xht1+WBgWJKRi3zpROKCKHyFb5d86WUomC3r6npDnL3nllXl+sx2pJ3j35Xpm31zcLQ8bcWTqpTj9dtg6OZxWpXnX/TnJtsRXmPhGn23nhFO8lejKDo3unmbvDTB/f1egvd+77q44Ai/pKYXVI+7U74Dqpg+2EbIoBRsmNB7n700A4G9e5eV/Vz/rfawiiy+o+2D35RlXSKwj+7HCLW08jCTx0dvVA4A0Ud9KhPIP6J+X2jrz51VU8esZU9LXJNbhNmccZTYcsSTqbr+mANJUMzhHrSxNADyMz6feqvj71kE5jV13QiJaWGeEzcT2xt9Sv95pAtDKsOEi4qAYQHtx6XlTfTtjUA6PJF0DpNuAgq3J2t/069C0tf8AKDZwlhZhnQCNt2ePWiLoDmzPWa8jEh47vWwfEd5ciJjoZtzPFHGwB4pRxX+rOd+QjowBFgDr4jB2vdSgYU19zZeNDo/ntxSrKxkrBTQXU5LC6cNesjz7NOB0sB7T833WdYRXEpvLx6h3D9a8uoAZaw1c3RJJBz62s6x9GKY/kvl8TF+RZNiaLTaVkJjoeg9I4RodlpTNqZEFIplDR20XWaJMzDDr9TjvW1c/kWRcaeNn2lQ+RrPUrlbhp+aGRrYqfkR0PoHO/jCGkamORWYZmnayLkYrvMebmq7uOrBLknoKkypgMLUzYuwPXT4swf15RqwJSXdZF9WZUwxJbuZGybCJhBmM4uCvrtUmviiIro39IdhBpppnkaWTFkR02DT5KsMlrkZyI8vHDlaUzbV77T18r/cXUzzvOwo2MxRwskVEkfxm5/MyrwylmFO0iXxMx0CB6mEz85iJ/2FECrr8dFeiZWgN7F9HRHEkxfKMxtBx8AA237pkyhqSnl9tS48CjEAzzn63V5FEp01oDR9/KQDj0+e/erESHZ8PWoDOk2faoWgD+fiYFFWVtnScCu9Tiv8uU7cPJPDyl2IoDdTfZ+cvVXMc1n1c7F8BSDjbfpFxf7yJ+eq6Udw4xJq29mq/GImInibZWcYWJWkCIG3dN+rtSaPZB6DTHF85RrKJi0JJ183ifGQog54sGYmpurNaZ22elGgswYn9MXaf0U3hwy9f+TNyTPFfml0Gr/ioH9A/YDIVO7gubZ5pRUw3DctG0Pr0jDtVkhSTWDxkNrvr/+AByY3jo1vPtcEtXkd2I5J0+W5fM6wfDI36McmNsws5WS8flqz1ZpbUWv+DfDD04wYuQfb//EvLzMDBG7L9pRjM4LXG5XwDC/p8ncvzzN/a8JH9C67z1Vj6vm4SInpS0FgvH3bldjBnG0JCrdPy6GTjCoikrt0Wbf2MgDPPGYHx2L7B5W9lONnAPSwxXltBL+4Lms6jSmctXTGbU5TNM2mTtJ1RQOw+8uoHMs3n/fML4+qaiKaddSxRGQma1xu3pyjosgkfS3/+QYbGf2FIMf99UTqQAIMqSSGp+lnUsZpN/bjfPD5IkEVb1eJswzC4b7923juv7RYMtPKgxKq1P/k5pCJpNC64WGGwQn0DBfgjo4Hv+pulANL73cXTXe14Wq1Wp8fdl9t5p5UAOi1AyVd47NZIil+iyEiKPFAp7HUp2kDX2yskYEeHcqRXB9cj+h3T84s6oCxR4vjs1rYhYnle0ksdB5Es6Qpn1Q30QxC0QApmt+O6h8F5ZWnbIcy/LM/tDsew7OC6Pbvzd619QbRVh9YrcMwAK/QXhtaNQ60JZnZp6NHfeSGiSHwXaBFRvLWLvAEra7Or5qPf00tszhSVBq8QbqZbE7RxkLQDDXaZHMHuJZH8jo6lqwptvWYnfmuz294iir+ZgDlswHNJwqZ69HeqJDeQD0HdJjTnv3IK9aHhL+c2SWXeQgKwp0vrxfdD2ZKodpZCOY8Ym6Y8BTpbm5muKKKd3JaXAW2MbaVwIJg+ruz9qmW0sTG0/nySaOsd+KolLnQoBtqn8WbSQZK6dSjkEZIgWRBFjhRXL2yDXZZmd/ycwbWQFD3tAUiNDVu+ySgm28e0qW5TMfWQcj4frVv3DBATzQ0jjmcVDwvKc84henpvAUmqmTmjkqdA+rpdJftQ9iYcEypwrmX/loUO620PuHUKmrH3QSQcDPuOdl4BfM01GPx6ys+BBwCTi3Nh/n5DIWgrr4IwFJqe+6VC0KkbI8DBiGLH26fHTzttGLDxJf5CkiQaBvdnw2fzl5uMM+jcAYGHR4pWWG3mNkbMqLubSpsR3upLbzxppfgN6qHxOduaSrMc2mhMmzl1kldz6xdEO7m7tV/3A6TPLVSDy9vFYNw5uWrX6+0fG5wXs8OP0fJS/SZD0inyC8iM5CqPlp9IOIeQyaUv1788V6vHte5zrVYVv/6HjUdM79CZhCDFe2XFZz838qy4UxxSvJJKVOUv+wVxJYoFlQGCahPonIJ+b7lq6XFj3IoEZ1EBr2T5HwhB5UFEQ51jQq6xKHCgsJsz78NoGn3LgF86RmkmIRonlSKmOa3MGGFoPP6FkIBqB0nODOYTyQI9wyyX8AP6hYCXJnT2C9yRxa7HNaCQHYH0CwHnSDNTvMI5yYI5UWV3ca1jClhijjS7CdorduvIVJHMnIX0V04MqOxa3t+1XewW9Amd3WfNl111QLUNDTu02VQsSMgwe6GjsL/kPKCWOfzDCT6Lp5PjJpgzs+IyKQZcZ7+9jFnxt7cyzkyLCu3l0jDgNK/gPpJYy9BXVt97f0OSAgxmOYTcV6koYtrKbHw1+svrygFnYNihsUeFIelyApUZIocUUYDBZw4hF1QYgqZ7SDJ34HtUoQCDqxxCFrQO7CLlLELm/yUkoJFDyC0JKooKvSGFHSkOKKIAg1YOIY9rIeQgJ0LeSFKAQT+HkKO1EDJHwlkRMiBBAQYqh5CXtRCygMok5CIQ4krI5VoI6bkSEtD/hyIkpKw1FfXrtRAyC0V909remAKcFoY9Kg5B++taGIatk7c18GEmWzhsnYTNxVJuv4/C9vu/6oCqX7zNkrS9vgOqcIS7BjeBaPffdYQbhhxa6xtyCGNAhdOJoNv1jQGFQbkEi8KDcuN/1aBcGCW9XO8oaRi2LvZzVRyGrafkiHAdwfjMiYLis2u/jhAu7Ih/1YWdcKVNFtk2yb7SBmhsha7X49InjN91VEDeXyGb7/t/cFkYrkUPHa5FxxTgKxwgVnx2rWEIKS4cYL+lbr+pXm5pDbHKo+N3B2mNO5K+TFikzqQsBTHTVq74DHgF8RkSdJArPpNil/wqVPz11/HoeWvYmx/s7MzmvcPHy+rP/zqycFI2eabWtTcjknr58kwaD4vYnRHjeBt1j7YvTlqKsQSr/tX+Yuu5+ptLbmkFzBLcf3hmFncBs/Gl46NNqbju7U7wE/wT+Inm+/yxaj7boMwSfwkaRz6yeZJc+eAE90Oi2EVPji7nnRYAlSjNv0OrBED6+nb037+m0opgGkaaxlreDRHRwk0Ek8HpUrI3+4mjrXELQJp+rzzOYJ2kAPp7h1OL9nZpZGINI+mCKPaQidVgdnQkMqLWMjNZVYd7AHSSpd1rOFEAJr2a5buWRkiZjZDyMZGTkPLNicVJ26qZncxiknY66AcdWjOD2cVxDPXFdGNriaDnJpidvFFuiUScl1uixYPN0Msef+jcWYIkJjr6BFLlZ3HSHhJJsaFJ68C1/mL/hSiyUmIy9+MJLNLv2WLjzVOi6Ds+pjsp2OYUY9fix9hC8YbYVbgwooH+zg0RCWtb+riLFXyKTPwZbfn/zX+PbUCzv2EZo9WzMLIhhi4OLgasgObZ00/JVinFF2T8FTTV0/fU0OHJx9J94fdOLqZ4ppGw9wMZJg+Oa+bdKa3lEb7Sc/9q9lGVv2er6ePFhO1OH24N8M6I4r9tT7qaSlvyYH2LhNjIYxHA2aMtAYDJWe/x5vm4OhpVp7XLo/P5uAkAiT1buTXAex+/gkTSUd0t/9mrXn/b5L2NtM1zpoQ1MwD0J6+d9/fPvasGAwCzxXTFK209LBO/oKcHeHiMWSg+2ABGLNM6YLhSwqzSFEtwmqjiltvMPxO/oUTQoUZS2BiRMTCPK7v1qmlkjDFBYnaW1ufsrNG4NQ3wKQwfxZ11z8RGNlvGnJixfvinLbxVDR/2V8SvkFyQHcG+O9e9G1rj6ujWnw87w4ON3NJ6SsDgf4KQVIM5xwXpIYMP/0XnfCPLyNzyG6w/QKByGVnfd2FoNrMUm4d9pAD/aT7Au83sdpa9N0sywVBofZDcwMPDPaR/mg+T0T9OAFWYe6/t5KvqJh4edtvrLOyWZDSuEI12PDZZioOR4ILkBjJy0/DM3f58nEyNUdT55Ctt8T8TIwwMKdrAwn59jwTgP5evrmoUm0+q7cNQUqCf/QmwU4jUaxsZI1tN/wWiR3z85MMsxbdb2cbcdpgpkzRVDLBK00TnksJI8baZJ+zXjeKMWPl4NXwYSKKXvZW6W+N4y/gBrWGQqnyXXOYjErSJdaRePGtZVsyd4yUfhpLKgYLFcDh7txnQr7s7i9Ph8LB3cLb3ACBnBIKh8UmbiJieT5DYU0mBfdfdKsW/zdM91sEKzF7HTkCnd1SjJaY3h7tp3tExM3BOciMZmY6tv1KBvhM7McX/M494fAakAHsMqDycfdl6VirRf1CpSCKKng/ukZlrTYSSoA2EJDoAEmRS4n3O0T8lkt991mFzmbZcnmMmX0jGgpYQxnD1+K2V/aUZuN1MkQJBNGxC6bXt7mmN9rV1VuXy3WmrhBmsvwYhxPdf+qgD1uCMRmtXbGaMCEmXHfjV2+ytwotjiq2NXbRIDf0Om4T7x1YzYxFR5QBQdkZYs3EM2kTEFM/7ttrufwZ4SBRnfBZdX+VWLcPHjCiirAed9u2MMJINvoQtTQaAYgYXYIPNvGOXSGQHZHWQs243wbogkjlXSM4zDlKY0ZjSxiKm0XYDUEXmcJQG2rdEcT79t8ZamrPmJudOhsgpNNj2EJyT2GBGqDvoA/a5Woeh5+a86jL1IQV1xwBn9bsDIuF030UzW+/F728wISQk0c1uH5wwGJ7DteAfdAxqRNI1R877Wel/r+ryJCHowh4iGo0qbTKEINo6SwHWHmd4/PXnaO68eEypSao2YX+1Hz4ocrT0adsYYUb/nDYbIia62WkCSBLN+ZTwr3tMi0uvO8+CnqAsD/Vx8JN0br2BxApvJRBEITrunTwASPMu4ixv+jU/h1UiGZMPDqDZxnK96k4s7Vqn+RN80ubDpO7rnb0UgNImTvj7DW6tFIDW5/yFyH+Cc89CCCPBKQn3N+ixD22LkPozlQFCEFW3FuMWDPjbn83gfn/7KF7pOpm9hGjUfUSDJL1DsaUWJU9UDsgKEY26j7PP+77+NkJUfzJeXNei1fQUBB3ZmixOMfMJt5gOYX/UKZUCy01Vovjl6pvqq7HfJYM4FivlxUOG7bXub1HsFWz3YLs7RpkgxJerQoLfoTBb/sEqiO1K9An2RuT33H1bOUpwRiWDoLjzLSEHBZu5fVviT3BBFb+veGiv6p/lI0T+GUI+LT4jDGz7ZSxBd7YOWuMqEOL4WJtnLuNhi6Tfs44b0LaGLRDiOFn8CsUWCfouCW/9W2VhtxkIcXyp25bfUGMy8le1t4cbOSEQUrMTUidBfpAXVkLSQIgLJNXqaySEBlZCNPkipKzihIjCERIImV79MzWkT4URuqza/0+XFdYhbPEYufZeh0ygbeFGzggrddup16nvSv0yrNT/6F7WwHcva2gJEIS9LFfE9hPcBHsVzyJyVny3NxByCrBt5MRT63zUAHPB85BQ1K/tJ4Z+3nqSbrX9UduBEA+jBlvib09JeATb2HqmzvwUCHHFa8bUydBn6uT6wX4+NbkLhLjiLWMuqz3yKump9TS4Q4GQwra5zOxuAivpEZoZ1g7aFYGQbh9snZJuOnuTVV8zZnvTYSDEGaN3KLtP8meFpFOA7GROv08DIa6QdisTBic4IOFS0U/BGfdDxiQCIY6I6aNlLetgxjYJh7neByhYH4LbQIjHg8U70owfE6dEIifItpqZdwybHhkr1JCItjOuo0ED2S4/MdFtK4MPJHijQIjvMQZnSCdiUKXYfk+dFgoJOMMe3mdPLBBCsVkbcpaAzck1UWQJj8tdQIGzXGQrpSshxvj000pIUZeh5z6YMyWe0rfn3/1XhRBEVJ3f54idMg4pKhcbxo1O1F6hviHkoirMZQQqggsocLYaUMNQQiKKojiOIqMGRMeLdr4a0EnZ6CCi2tbspP9do8/Mrffex9T83aqQ9NKHzr78ngD98fCySkuMuk8XTUCpPL2sIcky8UE0On+r51xpO5ltFXE/FbST7XP5ZS8F9DuDxeH54+PTsLfzfg+Ada6i3B6VB5KIurNXADZ3CgZ/3Yd++Nyurux+KqnbgMqzwvpp8wPd7yvAfClmRg6P2CpNRRcx0d1FE9BpnkKMSgFM5se0YvmMaLFstLIz15cqKdxVSS+oLIiJXgYpoBMGs5NJVXNRWzVxyT1osJsa5n/gqNur0OiSLEvtmB60bLKflvvqQP1UrHThUNBHH7xuDU5mnFJUlvAY1oHUz0yVU6BzRBSvZquYrJcRRoJ9EiXho7YPJArMnoYEGul8RNEKhMgxkvVqoiqjPFCOdHU+gbYWzWwNGmM5LFe9KrJW/5D+NclypKsZkKxiYsA/kKA5JJL+H3vdh16rw852KfiIaLoLTlaX+EMKzFZi5BBQ4LV5MuxYWr4NFB1XupAIpgLOKv6MSFqA9Xpc2kxBLwcfN3XL9qmfQ/B71ZsRQTSzMuLv6ROVgY+IPhrrsNrkBJ0VGSle2c1e5HhEshTx0fC3rbAzEvszMjeMFORDY7dSBj4kXU78jdSsjLxXVomRbcMIc4GECQwEiTLwcXy1RqvNBGcrldXzFhQX8lPHgsrAh6DKGCnzGs3ADkis8FrcXEErMK/aT9yfE0kqAyE769xOMk8aUryKt4zxe2HmlazZO5ckRClOow5tOuwFzE9f/Bkxfi8N2EScs83ekc4iklQKPu6aWPd2a+ot02cgBD3v209irClSmc3mcvAhSHwiWbspWIoZidX2086vgFSB2cMEYLI9IlmWDfceFPtYbTq8vQxGspqPoCQaLdpAovkH8r9TAtzvGBOAUkDQs5lXzj8/NdMOAGul8pO8mfqQtBLEz7EraPNB2Ye6AO4P7spCh8EFErCb1eYSKtXIe3sZPaqsrD9/PNxLAKSJId+uOo92r0sUCSoJBG2BwTl7uCmAxtX4bbG93ZsPPttNADmUMFQBf2Aj6/8xaPcBpKkJlN+aKsMG1/cfI/PXpYGgT2jm7GQF1C8O72iJ0VFvt5k3BsHm/r8oJOE8ejr4bOIH9N/AANDfexsemz+l8iAyIgiZLYwGTg67ZrQ0lj/wNc37spggc6ODodHskig2Hkajl/P5blvh75i87ww/pkQUCyoTBIkx0mwrKLRvR0RxJGkJISuCaDpvQmfQyVCYUzHEpghVqrWb2+35zuDiYvA26w2PatOReZ0iQeVCTFsZrSUDCdKDKn1n7hgLouddQGfeJyhuASVsBSKOBZUQA3uAsFGmeLR3lJKo14cCOKvRimkNEL+ByglB3QdwFh973awsLQVtNexNs3mAVxEJ6EGD7Xx0qhTlXCG5mWQsKzX6jz4hEvBqDxA2VoKxy9GvlVROseNMSICgmz6Ys8YxY4e+4LFvZQQJTpxnOgNimlv5YEbfeF87mp+CC99MDpBWTxUwEixIOi6pd+3D0ikWIUI8J00sfHRc73hLem5CW/V4PisU4LptYl0VaqhHijxSn12x6mFKjgiEzJGyrcMa+2zUThv2bs357mWA2EdqPRN/otjvEhQs3IYi4i798mp3LH31HJNoQXMhj/kAM2yi4f9aewUba1wFQhwJubY3vbgkH1Ro2/Ysd9P/QMitrYRotEeeS8wjS+fLGs0XlxAJENSzOaooDLz9cq6sS5qHR7eGLWCGxLa87pHwbKHfbewidRzzDXizvdQpnij2JGQAXdDZNuDMRoh9R9B/n9JDNTysC62+dekHSd95VLs9y9yJkAC5ayWkf+NNyHYg5I9GSCDk31RDdKgh/y8Y2LusR+8u683aZXmMAoV1iM3a7JSkJyFj6zokcVyHBCxsv2GCHfKEPLG7Az+5sBsgaWjfy9ob+ervNqDZ4lDwEQgpvNub1jwz1qHdjLYRBoEKq0ozTkl4PWtgPw9pBz6cIKjWtp8YfpL0kkOeQHNB16FAyGhsz1ktn8QvaIjEugyZBULc/ZpT68DhwGc1VzmxJT8wzt0ICaiYSsyWwd7mDcUe/Zp1lhRJjQJcxXfurcvrFGcex4XtjMnF1xG5ImDPWkRY45ykh1W9dfz9gAIKb0CBoTGpkXDi4ym1T5Im7oePAYIeUzCsjLzHJJ1aXru1o0Ldw6QgQNbBDNg7LZK58VE9QQLrih+DwIcPDrLvGO4QyTw+PpFkXfsZurfPAYJewMwZ8vqD7KwlqbaHDBMehatqWIX4oDJGAjsjCu81otiufHFdzxL7ZY2DUNJ9ENMtEmZkKQecW7wKI6LRop/JB+PhmQI8IOwleckILl7ofw1ppSB63ANUtvrMBQV4IaIedKb5qdZoDY6+6JMGggzOd3PUgJhZ3YQK4otRGzrbEDAFWp/btfivPN7NX1Or1UgB57oASYdgcK77KdKTt+3Hj5eXl6On3kVdAUgYnKPdexNKuj9Eno/gV976CY0vcJ6hILNaRVYjQNA1cn9bMBuZw0SzTpJEcabz6XIzbLXD9MDIG1JmOCv3gh3Vxg9JUsAqVhVtqLUrWyfYpYCVENMTsH6rzUnY5l0Vkg4sC7wiVoK3oaKvjso7UjCvM0AOQnysDkm1CRLwGgvImAogIKaP1vqsNpEW15ELjJwrf0bsBf1yDQkrbKGso7KzMfv/KHxMGCDodC1Wm1C4DzKL62HkMC3q9cngFJOjwMc6IASdt5ACXIyPq7uQr9YESR8TOPujWcYi3o9DfKwNMdXe4eJ+aj/vfVuvNXBgpHIAJBq8Snel0DykwMeaGaGnNtjXtJkZSIHPuz/hPxR249/Yz/2UAdaMZk+G8PgzQbLVAdhS3a2H7heXIV39GUhB8WEbSBIGO9DBKaA61z4GXQH+7qe9V0BnH54z+Mv5VH3eUgiPPwpBVD0cAwAbx1W2uLEygIeLR1qvj3mAZXT3ZlbXANh4bTLz37hIU5hxrd6zmbsO+NMQERFVtt5O7n+636ZpkiQqSZI0TTUAJI3O/OWLvIA/j2Uaujl9G1+18Hc0T3Znt8/0TzufBgjTOsW1j8dhb/Z2cbZ/NtiZb99uvRwTfTMUX3r8H+08mgYcDhKQAAAAAElFTkSuQmCC;" vertex="1" parent="1">
          <mxGeometry y="1282.5" width="125" height="125" as="geometry" />
        </mxCell>
        <mxCell id="HYla8N4dnpUGvem4N8iF-99" value="" style="shape=image;imageAspect=0;aspect=fixed;verticalLabelPosition=bottom;verticalAlign=top;image=data:image/svg+xml,PHN2ZyB4bWxucz0iaHR0cDovL3d3dy53My5vcmcvMjAwMC9zdmciIHByZXNlcnZlQXNwZWN0UmF0aW89InhNaW5ZTWluIG1lZXQiIHZpZXdCb3g9IjAgMC41ODQwMjI1MjE5NzI2NTYyIDI1NiAyMTguNTg2OTE0MDYyNSIgaGVpZ2h0PSIyMTM0LjIwMzE0Mjc1NTY4MTciIHdpZHRoPSIyNTAwIj48cGF0aCBmaWxsPSIjOTEyNjI2IiBkPSJNMjQ1Ljk3IDE2OC45NDNjLTEzLjY2MiA3LjEyMS04NC40MzQgMzYuMjItOTkuNTAxIDQ0LjA3NS0xNS4wNjcgNy44NTYtMjMuNDM3IDcuNzgtMzUuMzQgMi4wOS0xMS45MDItNS42OS04Ny4yMTYtMzYuMTEyLTEwMC43ODMtNDIuNTk3QzMuNTY2IDE2OS4yNzEgMCAxNjYuNTM1IDAgMTYzLjk1MXYtMjUuODc2czk4LjA1LTIxLjM0NSAxMTMuODc5LTI3LjAyNGMxNS44MjgtNS42NzkgMjEuMzItNS44ODQgMzQuNzktLjk1IDEzLjQ3MiA0LjkzNiA5NC4wMTggMTkuNDY4IDEwNy4zMzEgMjQuMzQ0bC0uMDA2IDI1LjUxYy4wMDIgMi41NTgtMy4wNyA1LjM2NC0xMC4wMjQgOC45ODgiLz48cGF0aCBmaWxsPSIjQzYzMDJCIiBkPSJNMjQ1Ljk2NSAxNDMuMjJjLTEzLjY2MSA3LjExOC04NC40MzEgMzYuMjE4LTk5LjQ5OCA0NC4wNzItMTUuMDY2IDcuODU3LTIzLjQzNiA3Ljc4LTM1LjMzOCAyLjA5LTExLjkwMy01LjY4Ni04Ny4yMTQtMzYuMTEzLTEwMC43OC00Mi41OTQtMTMuNTY2LTYuNDg1LTEzLjg1LTEwLjk0OC0uNTI0LTE2LjE2NiAxMy4zMjYtNS4yMiA4OC4yMjQtMzQuNjA1IDEwNC4wNTUtNDAuMjg0IDE1LjgyOC01LjY3NyAyMS4zMTktNS44ODQgMzQuNzg5LS45NDggMTMuNDcxIDQuOTM0IDgzLjgxOSAzMi45MzUgOTcuMTMgMzcuODEgMTMuMzE2IDQuODgxIDEzLjgyNyA4LjkuMTY2IDE2LjAyIi8+PHBhdGggZmlsbD0iIzkxMjYyNiIgZD0iTTI0NS45NyAxMjcuMDc0Yy0xMy42NjIgNy4xMjItODQuNDM0IDM2LjIyLTk5LjUwMSA0NC4wNzgtMTUuMDY3IDcuODUzLTIzLjQzNyA3Ljc3Ny0zNS4zNCAyLjA4Ny0xMS45MDMtNS42ODctODcuMjE2LTM2LjExMi0xMDAuNzgzLTQyLjU5N0MzLjU2NiAxMjcuNDAyIDAgMTI0LjY3IDAgMTIyLjA4NVY5Ni4yMDZzOTguMDUtMjEuMzQ0IDExMy44NzktMjcuMDIzYzE1LjgyOC01LjY3OSAyMS4zMi01Ljg4NSAzNC43OS0uOTVDMTYyLjE0MiA3My4xNjggMjQyLjY4OCA4Ny42OTcgMjU2IDkyLjU3NGwtLjAwNiAyNS41MTNjLjAwMiAyLjU1Ny0zLjA3IDUuMzYzLTEwLjAyNCA4Ljk4NyIvPjxwYXRoIGZpbGw9IiNDNjMwMkIiIGQ9Ik0yNDUuOTY1IDEwMS4zNTFjLTEzLjY2MSA3LjEyLTg0LjQzMSAzNi4yMTgtOTkuNDk4IDQ0LjA3NS0xNS4wNjYgNy44NTQtMjMuNDM2IDcuNzc3LTM1LjMzOCAyLjA4Ny0xMS45MDMtNS42ODYtODcuMjE0LTM2LjExMi0xMDAuNzgtNDIuNTk0LTEzLjU2Ni02LjQ4My0xMy44NS0xMC45NDctLjUyNC0xNi4xNjdDMjMuMTUxIDgzLjUzNSA5OC4wNSA1NC4xNDggMTEzLjg4IDQ4LjQ3YzE1LjgyOC01LjY3OCAyMS4zMTktNS44ODQgMzQuNzg5LS45NDkgMTMuNDcxIDQuOTM0IDgzLjgxOSAzMi45MzMgOTcuMTMgMzcuODEgMTMuMzE2IDQuODggMTMuODI3IDguOS4xNjYgMTYuMDIiLz48cGF0aCBmaWxsPSIjOTEyNjI2IiBkPSJNMjQ1Ljk3IDgzLjY1M2MtMTMuNjYyIDcuMTItODQuNDM0IDM2LjIyLTk5LjUwMSA0NC4wNzgtMTUuMDY3IDcuODU0LTIzLjQzNyA3Ljc3Ny0zNS4zNCAyLjA4Ny0xMS45MDMtNS42ODctODcuMjE2LTM2LjExMy0xMDAuNzgzLTQyLjU5NUMzLjU2NiA4My45OCAwIDgxLjI0NyAwIDc4LjY2NXYtMjUuODhzOTguMDUtMjEuMzQzIDExMy44NzktMjcuMDIxYzE1LjgyOC01LjY4IDIxLjMyLTUuODg0IDM0Ljc5LS45NUMxNjIuMTQyIDI5Ljc0OSAyNDIuNjg4IDQ0LjI3OCAyNTYgNDkuMTU1bC0uMDA2IDI1LjUxMmMuMDAyIDIuNTU1LTMuMDcgNS4zNjEtMTAuMDI0IDguOTg2Ii8+PHBhdGggZmlsbD0iI0M2MzAyQiIgZD0iTTI0NS45NjUgNTcuOTNjLTEzLjY2MSA3LjEyLTg0LjQzMSAzNi4yMi05OS40OTggNDQuMDc0LTE1LjA2NiA3Ljg1NC0yMy40MzYgNy43NzctMzUuMzM4IDIuMDlDOTkuMjI3IDk4LjQwNCAyMy45MTUgNjcuOTggMTAuMzUgNjEuNDk3LTMuMjE3IDU1LjAxNS0zLjUgNTAuNTUgOS44MjUgNDUuMzMxIDIzLjE1MSA0MC4xMTMgOTguMDUgMTAuNzMgMTEzLjg4IDUuMDVjMTUuODI4LTUuNjc5IDIxLjMxOS01Ljg4MyAzNC43ODktLjk0OCAxMy40NzEgNC45MzUgODMuODE5IDMyLjkzNCA5Ny4xMyAzNy44MTEgMTMuMzE2IDQuODc2IDEzLjgyNyA4Ljg5Ny4xNjYgMTYuMDE3Ii8+PHBhdGggZmlsbD0iI0ZGRiIgZD0iTTE1OS4yODMgMzIuNzU3bC0yMi4wMSAyLjI4NS00LjkyNyAxMS44NTYtNy45NTgtMTMuMjMtMjUuNDE1LTIuMjg0IDE4Ljk2NC02LjgzOS01LjY5LTEwLjQ5OCAxNy43NTUgNi45NDQgMTYuNzM4LTUuNDgtNC41MjQgMTAuODU1IDE3LjA2NyA2LjM5MU0xMzEuMDMyIDkwLjI3NUw4OS45NTUgNzMuMjM4bDU4Ljg2LTkuMDM1LTE3Ljc4MyAyNi4wNzJNNzQuMDgyIDM5LjM0N2MxNy4zNzUgMCAzMS40NiA1LjQ2IDMxLjQ2IDEyLjE5NCAwIDYuNzM2LTE0LjA4NSAxMi4xOTUtMzEuNDYgMTIuMTk1cy0zMS40Ni01LjQ2LTMxLjQ2LTEyLjE5NWMwLTYuNzM0IDE0LjA4NS0xMi4xOTQgMzEuNDYtMTIuMTk0Ii8+PHBhdGggZmlsbD0iIzYyMUIxQyIgZD0iTTE4NS4yOTUgMzUuOTk4bDM0LjgzNiAxMy43NjYtMzQuODA2IDEzLjc1My0uMDMtMjcuNTIiLz48cGF0aCBmaWxsPSIjOUEyOTI4IiBkPSJNMTQ2Ljc1NSA1MS4yNDNsMzguNTQtMTUuMjQ1LjAzIDI3LjUxOS0zLjc3OSAxLjQ3OC0zNC43OTEtMTMuNzUyIi8+PC9zdmc+;" vertex="1" parent="1">
          <mxGeometry y="1469" width="130" height="111" as="geometry" />
        </mxCell>
      </root>
    </mxGraphModel>
  </diagram>
</mxfile>
